<svg xmlns="http://www.w3.org/2000/svg" width="256" height="256" viewBox="0 0 100 100"><rect width="100" height="100" rx="50" fill="#020009"></rect><path fill="#ff00f1" d="M71.44 72.80L71.44 72.80Q70.32 73.76 68.40 74.36Q66.48 74.96 63.84 74.96L63.84 74.96Q61.12 74.96 58.72 74.08Q56.32 73.20 54.72 70.08L54.72 70.08L45.44 52.16Q44.08 49.60 42.92 47.04Q41.76 44.48 40.64 41.68L40.64 41.68L40.08 41.84Q40.48 46.64 40.56 51.00Q40.64 55.36 40.64 59.44L40.64 59.44L40.64 74.32Q39.84 74.48 38.28 74.68Q36.72 74.88 35.04 74.88L35.04 74.88Q31.44 74.88 30.00 73.64Q28.56 72.40 28.56 69.20L28.56 69.20L28.56 28.00Q29.52 26.64 31.64 25.88Q33.76 25.12 36.16 25.12L36.16 25.12Q38.96 25.12 41.32 26.00Q43.68 26.88 45.28 29.92L45.28 29.92L54.64 47.92Q56 50.48 57.16 53.04Q58.32 55.60 59.44 58.40L59.44 58.40L59.76 58.32Q59.36 52.96 59.32 48.16Q59.28 43.36 59.28 38.96L59.28 38.96L59.28 25.68Q60.08 25.52 61.64 25.28Q63.20 25.04 64.96 25.04L64.96 25.04Q68.56 25.04 70 26.28Q71.44 27.52 71.44 30.72L71.44 30.72L71.44 72.80Z"></path></svg>